<svg id="Layer_1" data-name="Layer 1" xmlns="http://www.w3.org/2000/svg" viewBox="0 0 473.94 515.98"><defs><style>.cls-1{fill:#1d1d1b;}.cls-2{fill:#52aae0;}.cls-2,.cls-26,.cls-3,.cls-4,.cls-5,.cls-6,.cls-7,.cls-8{stroke:#1d1d1b;stroke-miterlimit:10;}.cls-2,.cls-3,.cls-4,.cls-5,.cls-6,.cls-7,.cls-8{stroke-width:4px;}.cls-3{fill:#fff;}.cls-4{fill:#f6e93d;}.cls-5{fill:#fab60d;}.cls-6{fill:#e73245;}.cls-7{fill:#aa1f83;}.cls-8{fill:#b1cb08;}.cls-9{fill:#c0b3c3;}.cls-10{fill:#644d58;}.cls-11{fill:#65c6ec;}.cls-12{fill:#8ebf44;}.cls-13{fill:#17a0c8;}.cls-14{fill:#322f25;}.cls-15{fill:#4f7d39;}.cls-16{fill:#479cb1;}.cls-17{fill:#71bbd4;}.cls-18{fill:#c5e5f5;}.cls-19{fill:#c4b6d6;}.cls-20{fill:#04090d;}.cls-21{fill:#f2f8f8;}.cls-22{fill:#56753f;}.cls-23{fill:#a67989;}.cls-24{fill:#ccb5a0;}.cls-25{fill:#392a1f;}.cls-26{fill:none;stroke-width:7px;}</style></defs><title>logo comico</title><path class="cls-1" d="M272,635.63q0,12.07-7.34,17.93v.17q-6.64,4.11-20.07,4.11-19.75,0-31.17-2.4a13.47,13.47,0,0,1-4.76-1.71,3.9,3.9,0,0,1-1.49-3.32q0-3.4,4.63-3.41a33,33,0,0,1,5.73.65q-1.3-14.37-1.31-24.43a291.68,291.68,0,0,1,2.23-35.11l-2.14.18h-.35q-4.07,0-4.07-3.94a4.18,4.18,0,0,1,2.54-4.11c1.54-.72,4.11-1.09,7.69-1.09q8.66,0,13.6,2.14,4.59,2,4.59,5.21a4.33,4.33,0,0,1-1.25,3.06,3.82,3.82,0,0,1-2.82,1.31,10.71,10.71,0,0,1-3.72-1.27,16,16,0,0,0-4.94-1.57,234.92,234.92,0,0,0-2.71,35.1q0,7.65,1.71,25.57a161.55,161.55,0,0,0,16.31,1.1q10.88,0,17.26-3.85,1.84-2.31,2.8-9.05a23.38,23.38,0,0,1,1.18-5.55,3.48,3.48,0,0,1,3.45-1.88Q272,629.47,272,635.63Z" transform="translate(-87.39 -141.86)"/><path class="cls-1" d="M317.22,626.23a96.48,96.48,0,0,1-3.5,25c-1.16,4.37-2.9,6.56-5.2,6.56s-3.54-1.34-3.54-4a7.43,7.43,0,0,1,.09-1.36,19.12,19.12,0,0,1-9.22,2.41q-8.44,0-13.19-4.77t-4.74-13.33q0-8.7,5.12-13.79t13.59-5.1a17.18,17.18,0,0,1,12.46,4.94q-.82-17.27-12.81-17.26a12.33,12.33,0,0,0-5.7,1.59,12.12,12.12,0,0,1-4,1.6,3.63,3.63,0,0,1-2.67-1.23,3.94,3.94,0,0,1-1.18-2.79q0-2.62,3.81-4.86a18.73,18.73,0,0,1,9.7-2.4Q317.22,597.47,317.22,626.23Zm-8.87,10.28q0-11.12-10.45-11.11-11.46,0-11.45,11t11.36,11.1a10.26,10.26,0,0,0,7.74-2.9C307.41,642.68,308.35,640,308.35,636.51Z" transform="translate(-87.39 -141.86)"/><path class="cls-1" d="M369.79,627.41a65.64,65.64,0,0,1-3.4,20.68c-1.4,4.26-3.13,6.38-5.19,6.38a4.17,4.17,0,0,1-2.83-1A3.19,3.19,0,0,1,357.2,651c0-.27.69-2.93,2.09-8a56.28,56.28,0,0,0,2.1-15.06q0-17-10.64-17a12.46,12.46,0,0,0-9.94,4.51q-4,4.63-4,12.24A79.72,79.72,0,0,0,338,639.5a79.7,79.7,0,0,1,1.2,10.82q0,7.51-4.29,7.52a3.85,3.85,0,0,1-3-1,6.92,6.92,0,0,1-1.1-3.06q0-2.72-1.09-15.65Q328,620.07,328,612.46q0-13.25,5.11-13.24a4.18,4.18,0,0,1,2.84,1,3.1,3.1,0,0,1,1.19,2.39,23.3,23.3,0,0,1-.53,3.63,23.78,23.78,0,0,0-.52,4.5v1q6.46-8.78,15.73-8.78,8.53,0,13.27,6.31T369.79,627.41Z" transform="translate(-87.39 -141.86)"/><path class="cls-1" d="M426.92,591.17c0-.17-.17,2-.52,6.56q-.57,7.92-1,16.83-.48,12.86-.48,27.37,0,3,.05,6.1c0,2.08,0,3.18,0,3.3q0,6.51-4.13,6.51-4.53,0-4.53-7.34c0-1.14,0-2,.09-2.67A26.42,26.42,0,0,1,397.35,656q-9.09,0-14.39-5.88t-5.31-16.15q0-14,7.71-22.6t20.2-8.62a30.32,30.32,0,0,1,12,2.67q.3-12.11.83-14.51,1-4.46,4.83-4.46Q426.92,586.41,426.92,591.17Zm-9.79,22.74a21.45,21.45,0,0,0-11.48-3.59q-8.91,0-14.06,6.14t-5.15,16.68q0,7.22,3.47,11.21t9.58,4q7.69,0,11.7-5.11c.76-1.14,1.5-2.29,2.23-3.45a4.82,4.82,0,0,1,3.14-2.19Q416.56,625.31,417.13,613.91Z" transform="translate(-87.39 -141.86)"/><path class="cls-1" d="M383.62,642.94Z" transform="translate(-87.39 -141.86)"/><path class="cls-2" d="M156.67,510a28.9,28.9,0,0,0-8.35-1q-9.48,0-15.4,5-6.69,5.57-6.69,16a18.09,18.09,0,0,0,5.3,13.42q5.31,5.24,13.89,5.24a22.83,22.83,0,0,0,11.14-2.9q-.6,2.43-2,8.94c-.55,2.88-1.09,5.88-1.6,9q-6.63,2.55-17,2.55a45,45,0,0,1-32.1-12.62q-14.45-13.74-14.45-35.77,0-20.37,12.44-32.93,13.26-13.38,36.66-13.39,11.25,0,16.29,1.31Z" transform="translate(-87.39 -141.86)"/><path class="cls-2" d="M184,487.36c-9.38,2.84-13.49,17.72-8,23.49,3.69,3.82,11.54,3.51,16.49.37,6.81-4.3,9.58-14.73,4.69-20.44C194.08,487.06,188.28,486.06,184,487.36Z" transform="translate(-87.39 -141.86)"/><path class="cls-3" d="M188.7,500.72c-3.94,1-5.67,6.52-3.35,8.64,1.55,1.41,4.84,1.3,6.92.14,2.86-1.58,4-5.42,2-7.52A6,6,0,0,0,188.7,500.72Z" transform="translate(-87.39 -141.86)"/><path class="cls-4" d="M357,472.76q-.83,12.44-2.43,45.37-.82,20.25-1.24,45.6H331.9l-.59-27.89L310.4,565.92l-22.57-29.85-.59,27.66H265.92q-.42-13.56-1.6-45.84-.82-18.6-3-45.13h33.94q1.77,4.32,6.1,14,3.32,6.87,9.06,16.22,2.55-4,9.36-16.64,2.43-4.68,6.21-13.56Z" transform="translate(-87.39 -141.86)"/><path class="cls-5" d="M403,472.76l-2.31,48.39q-.65,15.63-1.54,42.58H365.89l-4-91Z" transform="translate(-87.39 -141.86)"/><path class="cls-6" d="M474.76,510a29,29,0,0,0-8.36-1q-9.47,0-15.4,5-6.69,5.57-6.69,16a18.09,18.09,0,0,0,5.3,13.42q5.31,5.24,13.89,5.24a22.77,22.77,0,0,0,11.13-2.9q-.58,2.43-2,8.94-.83,4.32-1.6,9-6.63,2.55-17,2.55a45,45,0,0,1-32.1-12.62q-14.44-13.74-14.45-35.77,0-20.37,12.44-32.93,13.26-13.38,36.66-13.39,11.25,0,16.29,1.31Z" transform="translate(-87.39 -141.86)"/><path class="cls-7" d="M559.33,516.29q0,20.91-10.78,35.36-11.31,15.11-29,15.1-18.18,0-29.44-15.22-10.59-14.32-10.6-35.24,0-22.32,11.55-35.06,10.9-12,28.49-12,17.29,0,28.19,12Q559.33,494.09,559.33,516.29Zm-28.49,10.42q0-16.46-11.13-16.46-10.85,0-10.84,16.58a27.58,27.58,0,0,0,2.84,12.38q3.2,6.46,7.88,6.46t8.06-6.58A25.91,25.91,0,0,0,530.84,526.71Z" transform="translate(-87.39 -141.86)"/><path class="cls-2" d="M195.57,536.34c-1.38,5.41-8.17,9.35-14.83,8.5a18,18,0,0,1-6.46-2.24c-3.3-1.86-5.95-4.65-6.46-7.6a7.7,7.7,0,0,1,1.49-5.65c3.28-4.9,11.22-8.44,17.84-5.88a15.56,15.56,0,0,1,6.74,5.3,10.2,10.2,0,0,1,1.89,4.73A8.13,8.13,0,0,1,195.57,536.34Z" transform="translate(-87.39 -141.86)"/><path class="cls-8" d="M241.63,480.62c-16.18-18.34-36,4.48-35.88,4.11,0,0,2.3-2.94,7.64-2.41a12.64,12.64,0,0,1,10.09,7.32,10.76,10.76,0,0,1,1,3.49,9.08,9.08,0,0,1-.09,2.21c-.43,2.83-4.73,11.11-5.58,12-3.18,3.33-11.64,13.49-8.62,17,2.28,2.63,13.07.63,13.07,7.13,0,4.26-2.6,3.86-4.73,7.84-2.32,4.38-2.06,5.74-5.1,5.74h0a3.66,3.66,0,0,1,1.25,2.4,9,9,0,0,1-4.74,9.46q-.75.4-1.68.84A13.64,13.64,0,0,1,199,558l-1.86-.71,3.52,2.67a22.24,22.24,0,0,0,17.61,4.27c9.27-1.81,18.74-6,24.14-13.29q10.8-14.44,10.79-35.35C253.19,510.06,252.83,493.3,241.63,480.62Z" transform="translate(-87.39 -141.86)"/><path class="cls-3" d="M185.56,532.28c-3.94,1.05-5.66,6.52-3.35,8.64,1.55,1.41,4.84,1.29,6.93.14,2.85-1.58,4-5.42,2-7.52A6,6,0,0,0,185.56,532.28Z" transform="translate(-87.39 -141.86)"/><path class="cls-9" d="M303.33,192.55c-.09.23,0,.44.07.66a.5.5,0,0,0-.58.32,4,4,0,0,0-.36.75c-.16.49-.33,1-.49,1.47-.19.15-.15.38-.16.58a.76.76,0,0,0-.17.69l-.16,0c-.35.12-.49,0-.45-.36a.94.94,0,0,1,.19-.46,1.65,1.65,0,0,0,.32-.65,9.77,9.77,0,0,1,.93-2.27c.17-.29.36-.57.55-.84C303.08,192.39,303.18,192.41,303.33,192.55Z" transform="translate(-87.39 -141.86)"/><path class="cls-9" d="M303.55,192.09a.13.13,0,0,1-.12.14c-.13,0-.22-.08-.22-.26s0-.13.12-.14S303.55,191.9,303.55,192.09Z" transform="translate(-87.39 -141.86)"/><path class="cls-10" d="M301.81,196.33c0-.2,0-.43.16-.58.23,0,.25.25.31.42s-.09.28-.26.24Z" transform="translate(-87.39 -141.86)"/><path class="cls-1" d="M177.16,495.72h0Zm12.61,13.71a3,3,0,0,0,1.29.07h0A3.21,3.21,0,0,1,189.77,509.43Zm8.14,6.7v0h0Zm1.41,1.27v0h0Zm25.55-338.53h0Zm12.87-6.7a0,0,0,0,0,0,0h0l0,0Zm10.16-4.64a.08.08,0,0,1,0,0v0l.05-.06Zm2-.76s0,0,0,0l0,0Zm152,385.42h0a0,0,0,0,0,0,0l0,0Zm3.34-1.39,0,0,0,0Zm34.78-362.34,0,0h0l0,0S439.94,188.48,439.94,188.46Zm-215.07-9.59h0Zm12.87-6.7a0,0,0,0,0,0,0h0l0,0Zm10.16-4.64a.08.08,0,0,1,0,0v0l.05-.06Zm2-.76s0,0,0,0l0,0Zm190.07,21.69,0,0h0l0,0S439.94,188.48,439.94,188.46Zm93.25,153c-1.07-.36-.64-1.32-.72-2-.71-5.68-1.13-11.4-2.07-17.05-7.1-42.64-24.81-80.32-54.84-111.48C427,160.5,367.51,139,297.82,147c-38,4.38-71.87,19.3-101.91,42.87-3.15,2.47-7.25,3.84-9.37,7.59l-12.29,11.75a7.06,7.06,0,0,1-.76,1.09,211.79,211.79,0,0,0-56.22,119.07c-.49,3.8,0,7.79-1.73,11.41v31.71c1.35,1.31.95,3.09,1.11,4.65a214.42,214.42,0,0,0,9.54,46.1l9.88-.05a212.25,212.25,0,0,1-7.84-31c-.91-5.37-2.33-10.74-1.86-16.29a2.9,2.9,0,0,1-.25-3.45c2.79,1.59,4.83,3.91,7,6.1,2.14.52,2.84,3.05,5,3.77.78-2.29-1.79-3.42-1.49-5.35l.09-.07c-1.09.49.2,1.12-.09.07-1.21-4.43-9.55-5.46-10.69-10-.23-.9-2.09-.6-2.73-1.69-1-1.68-2-3.13-1.78-5.4a38.74,38.74,0,0,0-1.33-13c-.92-2.63,2.35-2.06,2.1-4.41-.64-5.89.91-11.63,1.74-17.28.75-5.12,2-10.36,3.27-15.5.94-3.92,2.12-7.75,3.12-11.65.24-.94.28-1.78,1.51-1.77,3.2-8.11,5.93-16.4,9.39-24.43a191.87,191.87,0,0,1,59.12-76.35c.6-.47,1.42-.75,1.62-1.62,0-.45-.12-1.23,0-1.3,4.39-1.88,6.41-6.9,11.12-8.33a13.24,13.24,0,0,0,6.1-3.28q.25-.27.51-.51c.13-.13.26-.24.38-.35s.27-.21.4-.3a4.17,4.17,0,0,1,.44-.29l.23-.13a1.67,1.67,0,0,1,.23-.12,5.25,5.25,0,0,1,.55-.22l.27-.09.29-.08a5.84,5.84,0,0,1,1.47-.12h.21l.16,0a.08.08,0,0,1,.07,0,2,2,0,0,1,.34,0h.07a.76.76,0,0,1,0-.15s0-.07,0-.1l0-.16c0-.06,0-.1,0-.15a.87.87,0,0,1,.07-.17.83.83,0,0,1,.09-.16h0a.34.34,0,0,1,.08-.09.88.88,0,0,1,.44-.27.19.19,0,0,1,.1,0l.19,0h.12a5.91,5.91,0,0,1,.92.06v0c2.73-3.51,6.5-5,10.76-5.45a8,8,0,0,1,.6-.94.61.61,0,0,0,.1-.14,6.8,6.8,0,0,1,.56-.62l.24-.21.25-.2.25-.17.27-.16.27-.14.29-.11.29-.1a5.38,5.38,0,0,1,2.89.06l.66-.19a1.53,1.53,0,0,1,.11-.27.5.5,0,0,1,0-.13l.06-.12a1.71,1.71,0,0,1,.13-.23,1.43,1.43,0,0,1,.14-.2,1.87,1.87,0,0,1,.53-.48l.22-.11a1.33,1.33,0,0,1,.3-.11,1.06,1.06,0,0,1,.19-.06h0l.25,0,.25,0a7.28,7.28,0,0,1,1.22.06l0-.07.07-.16a1.74,1.74,0,0,1,.11-.18.93.93,0,0,1,.14-.14.13.13,0,0,1,.07-.06l.07,0,.15-.06s.06,0,.08,0l.19,0h.29c.23,0,.48,0,.71,0h.06a2.3,2.3,0,0,1,.23-.44,2.75,2.75,0,0,1,.17-.29l.2-.28a2.66,2.66,0,0,1,.26-.31l0,0,.15-.15c.08-.09.17-.16.25-.24a2.62,2.62,0,0,1,.34-.24,2.25,2.25,0,0,1,.36-.24h0a6.64,6.64,0,0,1,1-.46l.31-.1.3-.1c.53-.15,1.07-.26,1.6-.38l.92-.19.55-.13.38-.11.45-.14.44-.16a107.13,107.13,0,0,1,16.24-5.07c4.11-1,8.33-3,12.84-1.81l1.36-.17c1.07-1.87,3.39-2.28,4.82-2.26,4.75.06,9.26-1.36,13.92-1.62,3.06-.17,6.1.33,9.16-1.14,2.54-1.21,5.47.44,8.25.55,4.39.17,8.83-1.42,13.21.43,1.07.45,2.22.78,2.73,1.73,2.84,5.32,8.05,8.49,11.72,13.05.16.2.63.16,1,.23h0c0-.88,0-1.77,0-2.65a1.33,1.33,0,0,1-1.35-1.35c-1.35-.55-2.56-1.21-2.4-3l-.17.14.14-.17c-2.11-.06-2.93-1.26-2.85-3.25l1.28-.6c4.29-1,8.69-.24,12.76.55,2.5.49,5.3,1.23,7.87,2,8.93,2.48,18,4.5,26.54,8.16a8.78,8.78,0,0,0,1.13.37l.38.1c.39.1.77.19,1.14.31l.38.13a4.53,4.53,0,0,1,.87.39,3.37,3.37,0,0,1,.31.21l.31.25.12.12.11.13a2.26,2.26,0,0,1,.23.29l.1.15a1.62,1.62,0,0,0,.1.18,3,3,0,0,1,.17.36c4.85-.64,8.06,3.08,12.11,4.56,6.27,2.28,11.41,6.8,17.72,9.1a4.1,4.1,0,0,1,2.4,4.59c-.12.56-1.07,1-.12,1.61s1.47,0,1.91-.74a9.41,9.41,0,0,1,.6-.81c.66-.91.68-2.41,2.47-2.23a2.32,2.32,0,0,1,.38.06l.34.09a2.18,2.18,0,0,1,.34.14l.17.09a2.34,2.34,0,0,1,.93,1,1,1,0,0,1,.1.21,6.24,6.24,0,0,1,.28.76c.05.17.09.34.14.5l.25-.08a.85.85,0,0,1,.22,0l.23,0a2.41,2.41,0,0,1,1.65.46,4.17,4.17,0,0,1,.4.3l.4.34.56.53a6.2,6.2,0,0,0,.56.48c5,3.66,9.8,7.46,14.62,11.29,1.89,1.49,3,3.77,5.1,5.1a2.32,2.32,0,0,1,1,2.61,227.1,227.1,0,0,1,25,30.22,17.13,17.13,0,0,1,2.78,6c2,.11,2.39,1.95,3.12,3.19,7.52,12.74,14.33,25.84,19,39.93.18,2.77-2.55,3-3.85,3.18-3.27.52-6.69.19-10,.12-.62,0-.81-.68-.87-1.26h0c-.77.25-2.25-.39-2.19.75a2.41,2.41,0,0,0,2.67,2c3.93,0,7.86.1,11.79,0,2.19-.07,2.81.88,2.5,2.83,1.34,5.54,2.46,11.14,4.09,16.59,1.11,3.7-.07,6-3.16,7.69a56.4,56.4,0,0,1-18.42,12.08,33.52,33.52,0,0,1-12.24,4.38c-11.72,1.84-17.73,9.66-21.43,19.88-4.47,12.35-4.1,25.05-2.07,37.81.65,8.12,5.88,14,10.1,20.29h0a20.52,20.52,0,0,1,2.89,6.14l4.32,0a26.77,26.77,0,0,0-5.63-11.63c-4.88-5.51-7.14-11.81-8-18.84-1.48-12.07-1.52-24,3.68-35.38,3.28-7.16,8.05-12.28,16.37-14,13.41-2.73,24.83-9.58,34.93-18.7l2.89-2.61c5.2,28.69,4.87,56.49-3,84.06-.18,4.53-2,8.64-3.27,12.89-.39,1.32-.8,2.65-1.22,4l7.3,0c.39-1.22.78-2.45,1.16-3.7a198.18,198.18,0,0,0,7.82-40.54c.11-1.21-.37-2.73,1.14-3.53v-8.77a41.35,41.35,0,0,1,0-14.84Zm-93.27-153,0,0s0,0,0,0l0,0Zm-190-21.71h0s0,0,0,0Zm-2,.82.05-.06h0a.08.08,0,0,1,0,0Zm-10.15,4.6,0,0h0a0,0,0,0,0,0,0Zm-12.84,6.68h0Zm215.05,9.59,0,0h0l0,0S439.94,188.48,439.94,188.46ZM249.87,166.77s0,0,0,0l0,0Zm-2,.76a.08.08,0,0,1,0,0v0l.05-.06Zm-10.16,4.64a0,0,0,0,0,0,0h0l0,0Zm-12.87,6.7h0Z" transform="translate(-87.39 -141.86)"/><path class="cls-11" d="M519,312.93c-1.63-5.45-2.75-11.05-4.09-16.59a2.57,2.57,0,0,0-3.35-1.72,31.31,31.31,0,0,1-11.38.21c-5.35-.91-7.75-4.87-9.59-9.38-1.9-2.05-5.79-3.23-2.77-7.33a2.19,2.19,0,0,0-1.18-3.47h0c-.95,2.3-3.07,3.19-4.94,4.56-2.28,1.67-4.89,2.93-6.89,5.09-2.24,2.42-5.36,2.87-8.58,2.42-7.82.73-15.43.24-22.56-3.61-8.2-4.44-10-8.31-8.53-17.36,1-6,1.88-12,1.35-18.08-.77-8.8-5.24-15.54-11.35-21.51-7-6.82-8.15-11.46-3.93-21.84a77.42,77.42,0,0,1,9-15.71c1.3-1.82,1-2.51-.72-3.58a209,209,0,0,0-27-14.27c-.81-.36-1.55-.84-2.32-1.27h0c-7.68-2.4-15.05-5.7-22.89-7.62-4.9-1.2-9.7-2.75-14.73-3.33-3.52.07-7.05.21-10.58.17-1.2,0-1.59.43-1.74,1.44l1,1.11c3.23.23,6.65,4.09,7.17,8.08,6.09,8.22,9.56,17.33,9.29,27.66-.06,2.45-.44,4.89-.68,7.33,1.94-.67,3.31,0,4.65,1.52,8.55,9.65,14.08,20.61,15.11,33.64,1.61,20.4-7.08,36.23-22.2,48.9-11.57,9.69-25.4,14.21-40.24,16-3.77.45-7.48,1.35-11.31,1.27-11.18-.23-21.48-3.82-31.44-8.49-6.13-2.88-11.46-6.89-15.12-12.77-4.64-7.47-4.94-15.5-2.39-23.59A64.68,64.68,0,0,1,279.4,235.5c-3.79-11.63-3.77-23.87-5.93-35.76a35,35,0,0,0-1.84-6.8c-3.13-7.78-9.65-10.91-18.78-8.47-5.94,1.58-11.66,3.95-17.44,6.1-2,.73-2.22,2.73-2.3,4.5a51.13,51.13,0,0,0,0,9.42c1.48,10.55-3.8,17.77-11.3,24-3.71,3.1-7.86,5.57-11.85,8.27-2,1.38-4.07,2.79-6,4.35-1.41,1.16-2.62,2.52-1.35,4.62a4.2,4.2,0,0,0,5.11,2.18,13.35,13.35,0,0,0,5.41-2.57c8.21-7,17.32-6.86,26.88-3.56a22.31,22.31,0,0,0,2.29.52c8.24.6,15.17,3.89,13.53,15v7.07a15.79,15.79,0,0,0,1,4.07c1.63,3.31-.64,6.41-1.24,9.61l-1.05-.69a.38.38,0,0,0-.06.49c1.31,7.45-1.39,14.11-4.25,20.68-1.18,2.71-3.85,1.57-6,1.69a.43.43,0,0,0-.47.16c-.39,1.78-1.76,1.16-2.87,1.19-7.38,1.94-15.31,1.4-22.46,3.75-12.73,4.21-23.31,11.25-26.09,25.92a134.14,134.14,0,0,1-5.26,19c0,4.67-2.61,8.94-7,10a6.52,6.52,0,0,1-6.14-2.15,6.46,6.46,0,0,0-4.4-2.62c-2.91-.35-2.84-2.91-2.74-5.2l-4.36-4.53-.64.31c.4,3.45.84,6.89,1.2,10.33.28,2.68.59,5.38.6,8.06,0,1.92.49,2.91,2.59,2.95,12.7.27,23.26,7,34.51,11.59,3.24,1.33,3.67,3.92,1.68,6.88-3.09,4.58-7.95,5.17-12.79,5.45-3.81.21-7.64,0-11.46-.1-3-.08-4.58,1-4.41,4.3a20.29,20.29,0,0,1-1.79,9.52c-2.49,5.5-7.42,7.63-13.07,5.45a19.67,19.67,0,0,1-8.29-6.09c-6.56-8.12-11.8-17.12-17.49-25.83-2.14-2.19-4.18-4.51-7-6.1a2.9,2.9,0,0,0,.25,3.45c1.59,2.25,1.68,5.05,2.71,7.51,4.92,11.82,12.06,21.9,22.76,29.23a4.67,4.67,0,0,1,.81,1c.16,1.53-.32,3.15.64,4.57l.68.13v-4.48c7.27,5.15,15.42,7.14,23.56,9.05l8.53,0c.59-.85,1.15-1.77,2.33-1.95a15.39,15.39,0,0,1,2.86-.5,74.28,74.28,0,0,0,13.52-11.95c-.27-5.66,4-10.35,9.42-12.64,7.72-3.25,15.65-3.73,23.76-3.75,4.6,0,8.89,1.3,13.31,2.31a41.27,41.27,0,0,1,8.65,3c2.84,1.36,4.29,3.83,5.22,6.56s-1.57,6.33-5,8.2a48.31,48.31,0,0,1-11.07,4c-.14,1.91-1.61,1.32-2.69,1.42-1.45.14-3.13-.41-4,1.38l4.32,3.49,204.37-1.19a82.23,82.23,0,0,0,8.29-16.15c1.27-3.32,2.46-6.75,2.33-10.43-2-12.76-2.4-25.46,2.07-37.81,3.7-10.22,9.71-18,21.43-19.88a33.52,33.52,0,0,0,12.24-4.38c.39-1.57,1.72-2,2.94-2.84,3.82-2.52,8.65-3.73,10.83-8.54.77-1.7,3.05-.56,4.65-.7C518.94,318.89,520.12,316.63,519,312.93ZM255,243.45a1.06,1.06,0,0,1-.78-.4c-.18-.39.18-.63.53-.63a2.78,2.78,0,0,1,.78.28C255.61,243.25,255.33,243.47,255,243.45ZM172.08,361.27c-1.22,2.09-3.09.73-5.14,1.05,1.15-2.56,2.67-3,4.57-2.43A1,1,0,0,1,172.08,361.27Zm83.53-63.55c.48,2.88-1,2.64-3.52,2.2Zm-46.9,16.15a1.12,1.12,0,0,1,1.21,1.24,1.72,1.72,0,0,1-.07.52,1,1,0,0,1-.08.21,1.4,1.4,0,0,1-.12.18l0,0-.13.13a.94.94,0,0,1-.22.12,1.61,1.61,0,0,1-.53.1h-.11a1.88,1.88,0,0,1-.49-.06.7.7,0,0,1-.2-.08.5.5,0,0,1-.14-.08,1.14,1.14,0,0,1-.16-.15.5.5,0,0,1-.1-.14.31.31,0,0,1-.05-.1.39.39,0,0,1-.05-.14.35.35,0,0,1,0-.11.78.78,0,0,1,0-.22C207.3,314.39,207.72,313.85,208.71,313.87Zm7.71,35.22c-1.57,3.17-3.12,4.09-6.42,2.55-2.56-1.2-5.27-4.18-5.24-6.75a33.55,33.55,0,0,1,12.31-24.15C227,312.3,239,308.45,251.44,305.9c4-.82,8.28-.2,12.44-.2.8,0,1.7.2,1.83,1.13.18,1.21-.82,1.36-1.73,1.57-17.93,4.26-30.31,16-40.79,30.3A72.28,72.28,0,0,0,216.42,349.09Zm50,30.37c-7.61,10.13-19.33,9.66-26.84-1.08-8.12-11.62-8.54-33.37-.81-45.27.41-.63.5-1.77,1.69-1.68a8.08,8.08,0,0,1,4.39-5.05c7.61-5,15.8-3.41,21.48,4.17C275.89,343.35,275.94,366.76,266.4,379.46Zm77.75,8.73c-2.54,6.93-8.88,9.91-15,5.93-5-3.23-8.29-3.32-13.18.17-5.63,4-11.62,1.59-14.76-4.66a36.28,36.28,0,0,1-2.21-7.05c-1.3-2.24-.31-4.82-1.07-7.18-.3-1,.84-1.91,1.84-2.07,2.8-.44,5.58-.4,8,1.36a2.18,2.18,0,0,1,.5,3c-3,3.86,1.05,6.27,1.72,9.35.17.78.8.64,1.27.2.88-.82,1.86-.58,2.85-.33l0,0c1.1-3.92,4.75-5.56,7.36-8.11.65-.63,1.73-.1,1.81,1.14a26.4,26.4,0,0,0,8.16,7.41c3.31,2,4.82,1.36,6-2.26a27.62,27.62,0,0,0,1.18-8c.08-4,3.06-1.77,4.72-2.19s2.65.25,2.52,2.35C345.66,381,345.44,384.67,344.15,388.19ZM393,261l.4-.44c.09-.1.19-.2.28-.31s.35-.35.53-.51l.42-.38.33-.25a3.24,3.24,0,0,1,.35-.21,1.19,1.19,0,0,1,.22-.12,2.72,2.72,0,0,1,.35-.16l.21-.08a3.52,3.52,0,0,1,.66-.15l.18,0h.18a3.55,3.55,0,0,1,.9.07l.27.06c1.77-2.89,4.45-5.22,5.34-8.67.16-.59.76-.76,1.34-.84l.3.15a1.53,1.53,0,0,1,.25.16h0a3.23,3.23,0,0,1,.27.23,1.39,1.39,0,0,1,.15.19,1.3,1.3,0,0,1,.1.15,1.55,1.55,0,0,1,.12.22,2.11,2.11,0,0,1,.1.3c0,.07,0,.14.05.21a4.08,4.08,0,0,1,0,.61,3.62,3.62,0,0,1,0,.46c0,.13,0,.27,0,.41v0l0,.31a9.72,9.72,0,0,0,.25,1.06c.06.17.11.33.16.49l.19.46c.07.15.14.3.22.44l.21.37a6.77,6.77,0,0,0,.81,1.08l.27.27a8.19,8.19,0,0,0,1.49,1.17c.08.06.16.1.24.15h0a2.61,2.61,0,0,0,.28.17l.1.06.31.16c.44.23.89.44,1.36.63l.46.19.17.07.54.2c1,.37,2,.72,3.07,1.09-5.93,2.51-8.39,7.37-10.85,12.7-3-4.34-5.8-8.55-10.91-10.06-.79-.14-1.7,1.16-2.32-.08C392,262.34,392.44,261.66,393,261ZM374.48,379.91c-1.17.09-2.47,0-2.92-1.16-1.44-3.84-4.81-6.56-5.26-11.14-.38-3.92-.94-7.65.1-11.51.44-1.61-1.12-2.72-1.33-4.34-.45-3.39,1.56-5.91,2.22-8.87.76-3.42,1.12-6.89,3.2-9.93a79.4,79.4,0,0,1,5.82-6.85,1.31,1.31,0,0,1,.43-.34.81.81,0,0,1,.22-.07.71.71,0,0,1,.25,0h.17a1.83,1.83,0,0,1,.39.09,4.81,4.81,0,0,0,1,.27,2,2,0,0,1,.62-1.81c2.88-2.85,10.86-3.16,13.84-.5.2.17.14.63.21,1,9.71,6.21,12.93,15.79,13.71,26.59.63,8.88-.54,17.4-5,25.3C396,387.48,384,391.15,374.48,379.91Zm72.65,27.72c-3.07,3.42-6.27,6.22-11.22,7.58-5.81,1.59-11.82-.16-17.36,2.24a2.59,2.59,0,0,1-2,0c-3.27-1.81-6.81-1-10.22-1.08-6.79-.08-12.46-2.4-17-7.54-2.28-2.59-1.53-6.83.92-9.09,5.12-4.71,11.3-5.72,17.83-6.61a78.21,78.21,0,0,1,9.55-1.11c7.43.47,14.81,1.31,21.78,4.12,3.44,1.39,5.72,4.3,7.72,7.28A3.78,3.78,0,0,1,447.13,407.63Z" transform="translate(-87.39 -141.86)"/><path class="cls-12" d="M286.92,155.9l1.35-.16,4.64-.72c13.63-2.09,27.3-3.69,41.14-2.75,1.09.07,2.36-.16,3.2.73,4.56,4.88,9.66,9.28,13.42,14.88-5,25.76-18.56,46.27-38.79,62.56-3,2.42-5.69,5.33-9.64,6.54a34,34,0,0,1-16.58.48c-3.09-3.84-3.71-8.58-4.59-13.18-1.7-8.82-1.91-17.85-3.63-26.68-2.72-13.95-11.53-20.16-25.18-17.37-6.72,1.38-12.79,4.79-19.36,6.7-1.57.46-2.37,2-3,3.48-.52,1.34-1.15,2.63-1.73,4-.84.7-.64,1.69-.72,2.6-1.08,3.39-1.87,6.93-3.32,10.16-4.78,10.69-12.73,18.88-21.5,26.33-1.76,1.49-3,3-2.73,5.39-2.75,4.35-2.78,7-.11,10.45,2.43,3.12,5.89,4,10.33,2.39,3.52-1.26,6.56-3.4,9.64-5.46,2.68-1.8,5.48-2.9,8.84-2.42a67,67,0,0,1,12.13,2.66c9.73,3.33,13.25,9.85,10.08,18.55-2,.74-2.35,2.66-2.9,4.28a60.85,60.85,0,0,1-3.73,8.57c-5.1,9.75-12.06,17.41-22.87,20.9a14.12,14.12,0,0,0-2.57,1.48,43.65,43.65,0,0,0-16.05,8.21c-5.79,4.66-11.57,9.39-13.52,17.05a70.51,70.51,0,0,1-2.31,7.71,1.34,1.34,0,0,0-1.23,1.4c-1,.61-1.27,1.77-1.9,2.67-3.5,5-7.12,9.77-14.13,9.54a95,95,0,0,1-9.43-10c-.94-1.15-1.92-2.43-3.62-1.55s-1.16,2.43-.82,3.85a130.85,130.85,0,0,1,3.69,25.9c.19,5.32.92,6.1,6.35,6.56,6.53.57,12.85,1.8,18.65,5,.86,3.6.09,5.1-3.08,6.5-2.81,1.24-5.94,1.72-8.5,3.56l-.78.45c-1,.39-2.1.76-3.13,1.18-7,2.91-10.29,9-12.95,15.54-3.66-3.67-6.33-8.1-9.47-12.17C142.94,387,141,381.18,136.66,377l.07-.07c-3.31-4.85-6.83-4.25-11.07-8.23-1.7-1.6-4.72-9.38-4.69-11.71.18-14.76-1.82-26.15,1.38-40.56,1.39-6.23,7.58-17.94,9.12-24.14,3.2-8.12,6.32-12.36,9.78-20.39a191.87,191.87,0,0,1,59.12-76.35c.6-.47,1.42-.75,1.62-1.63q11.46-7.5,22.9-15h0A3,3,0,0,0,227,177.6l0,0a74.5,74.5,0,0,0,10.77-5.45l0,0a23.09,23.09,0,0,0,6-2.75l.66-.19a7.56,7.56,0,0,0,3.52-1.72l-.05.06a2.38,2.38,0,0,0,2-.82l0,0A327.22,327.22,0,0,1,286.92,155.9Z" transform="translate(-87.39 -141.86)"/><path class="cls-13" d="M419.11,535.63v.08h0l0,0Zm12.31-89.45h0a1,1,0,0,1,.18-.31A1.23,1.23,0,0,0,431.42,446.18Zm40.43-28.79c-.34-.59-.06-1.53-.06-2.32h0c-4.22-6.33-9.45-12.17-10.1-20.29.13,3.68-1.06,7.11-2.33,10.43a82.23,82.23,0,0,1-8.29,16.15l22.2-.13A13,13,0,0,0,471.85,417.39Zm-9.29-6a1.07,1.07,0,0,1,.63-1.63c1.75-.52,2.09,1,3.31,2.08C464.76,412.3,463.47,412.88,462.56,411.42Z" transform="translate(-87.39 -141.86)"/><path class="cls-12" d="M239.78,422.58l-44.26.25c.85-.69,1.7-1.4,2.55-2.11,1.72-1.45,3.4-2.92,5.08-4.4s3.33-3,5-4.51a10.24,10.24,0,0,1,4.47,1.07c6.23,3,12.71,5,19.74,4.53l1.21.09c.57.52,1.13,1.08,1.74,1.56C236.78,420.24,238.27,421.41,239.78,422.58Z" transform="translate(-87.39 -141.86)"/><path class="cls-12" d="M520.26,404.12c-.7,1.27-1.51,2.47-2.08,3.8-1.91,4.45-4.07,8.77-6.28,13.07l-32.9.2a26.77,26.77,0,0,0-5.63-11.63c-4.88-5.51-7.14-11.81-8-18.84-1.48-12.07-1.52-24,3.68-35.38,3.28-7.16,8.05-12.28,16.37-14,13.41-2.73,24.83-9.58,34.93-18.7l2.89-2.61C528.44,348.75,528.11,376.55,520.26,404.12Z" transform="translate(-87.39 -141.86)"/><path class="cls-12" d="M465,209.41a227.87,227.87,0,0,1,25,30.22,17,17,0,0,1,2.78,6c-.26,4.26,1.67,8.28,1.31,12.59-.25,2.89-.95,5.29-4.06,6.21-10,3-16.95,10.07-23.56,17.61a28.43,28.43,0,0,1-22.85-4c-5-3.29-6.08-5.47-4.54-10.63a32.74,32.74,0,0,0,.85-5c1.38-10,1.59-19.87-3.55-29.14-2.66-4.8-6.68-8.41-10.27-12.39-3.12-3.45-3.78-7.11-2.3-11.46,2.38-7,6.31-13.08,10.37-19.15,1.55-2.3,3.22-3.19,5.77-1.82l-.06,0A298.16,298.16,0,0,1,465,209.41Z" transform="translate(-87.39 -141.86)"/><path class="cls-14" d="M184.46,376.59c-5.8-3.22-12.12-4.45-18.65-5-5.43-.46-6.16-1.24-6.35-6.56a130.85,130.85,0,0,0-3.69-25.9c-.34-1.42-.89-3,.82-3.85s2.68.4,3.62,1.55a95,95,0,0,0,9.43,10l5.81,4.83c1.6,1.71,3.41,4.34,5.44.91a40.64,40.64,0,0,0,6-19.35,70.51,70.51,0,0,0,2.31-7.71c1.95-7.66,7.73-12.39,13.52-17.05a43.65,43.65,0,0,1,16.05-8.21,81.81,81.81,0,0,0,19.56-2.74,3.36,3.36,0,0,0,2.74-1.21v0a4.29,4.29,0,0,0,4-2.75h0l.84-1.31c3.16-5.69,3.52-12.12,4.4-18.33.41-2.89,1.43-5.89.51-8.92,3.17-8.7-.35-15.22-10.08-18.55a67,67,0,0,0-12.13-2.66c-3.36-.48-6.16.62-8.84,2.42-3.08,2.06-6.12,4.2-9.64,5.46-4.44,1.58-7.9.73-10.33-2.39-2.67-3.43-2.64-6.1.11-10.45l6.15-5.12a24.66,24.66,0,0,0,7.47-4.47c4.55-3.85,10.22-6.62,12.7-12.56h0l.9-1.3a.65.65,0,0,0,.4-.14c1.7-2.1,1.44-4.63,1.3-7-.27-4.61.75-9.29-.63-13.85.58-1.32,1.21-2.61,1.73-4,.59-1.52,1.39-3,3-3.48,6.57-1.91,12.64-5.32,19.36-6.7,13.65-2.79,22.46,3.42,25.18,17.37,1.72,8.83,1.93,17.86,3.63,26.68.88,4.6,1.5,9.34,4.59,13.19,2.27,6.79,9.55,11.11,15.86,11.39,11.49.52,21.05-3.88,28.67-12.56,2.7-3.07,4.44-6.91,8.12-9.23,5.85-3.7,11.44-7.8,17.21-11.63a14.44,14.44,0,0,0,5.48-6.57c5.54-13.5,1-31.45-10.33-41-3.76-5.6-8.86-10-13.42-14.88-.84-.89-2.11-.66-3.2-.73-13.84-.94-27.51.66-41.14,2.75l-4.64.72c1.07-1.87,3.39-2.29,4.82-2.28,4.75.07,9.25-1.35,13.92-1.61,3.06-.17,6.1.32,9.16-1.14,2.55-1.21,5.46.44,8.25.55,4.4.17,8.83-1.42,13.21.43,1.07.45,2.22.78,2.73,1.73,2.84,5.32,8.05,8.49,11.72,13.05.16.2.63.16,1,.23.09.48.07,1.06.81,1,.08,0,.21-.14.21-.21.05-.75-.53-.73-1-.82L353,164l.17-.16,5.28,5.47c6.09,8.22,9.56,17.33,9.29,27.66-.06,2.45-.44,4.89-.68,7.33a25.32,25.32,0,0,1-13,17.43c-3.52,1.95-6.63,4.6-10,6.81a30.12,30.12,0,0,0-8.46,8,39.59,39.59,0,0,1-20,14.76c-13.64,4.74-26.25,1.16-33-9.58-1.24-2-2.16-4.15-3.22-6.23-3.79-11.62-3.77-23.87-5.93-35.76a35,35,0,0,0-1.84-6.8c-3.13-7.78-9.65-10.91-18.78-8.47-5.94,1.58-11.66,4-17.44,6.1-2,.73-2.21,2.72-2.3,4.5a52,52,0,0,0,0,9.42c1.48,10.55-3.8,17.77-11.3,24-3.71,3.1-7.86,5.56-11.85,8.27-2,1.38-4.07,2.79-6,4.35-1.42,1.16-2.63,2.52-1.36,4.62a4.21,4.21,0,0,0,5.11,2.18,13.35,13.35,0,0,0,5.41-2.57c8.21-7,17.33-6.86,26.88-3.56a22.31,22.31,0,0,0,2.29.52c6.64,3.07,13.19,6.21,13.53,15v7.07q-.65,6.5-1.3,13a.37.37,0,0,0-.06.5c-.43,1.95-.8,3.93-1.29,5.86-1.6,6.24-2.45,12.91-8.94,16.5a.45.45,0,0,0-.48.16,4.44,4.44,0,0,0-2.86,1.19c-7.39,1.94-15.31,1.4-22.46,3.75-12.74,4.21-23.31,11.25-26.09,25.92a134.64,134.64,0,0,1-5.26,19c-.67,1.27-1.3,2.56-2,3.8-2.92,5-6.82,5.74-11.33,2-2.32-1.92-4.6-3.88-6.9-5.83l-4.37-4.53-.64.31c.4,3.44.84,6.89,1.2,10.34.27,2.67.59,5.36.6,8.05,0,1.92.49,2.91,2.59,2.95,12.7.27,23.26,7,34.51,11.59,3.24,1.33,3.67,3.92,1.68,6.88-3.09,4.59-7.94,5.17-12.79,5.45-3.81.22-7.64,0-11.45-.1-3-.08-4.59,1-4.42,4.3a20.23,20.23,0,0,1-1.79,9.51c-2.5,5.51-7.42,7.64-13.07,5.45a19.48,19.48,0,0,1-8.29-6.08c-6.56-8.12-11.8-17.12-17.49-25.83,2.14.52,2.84,3.05,5,3.77.78-2.29-1.79-3.42-1.48-5.35,4.3,4.21,6.28,10,9.89,14.68,3.14,4.07,5.81,8.5,9.47,12.17,1.13.7,2.21,1.5,3.39,2.09,4.18,2.07,7,.93,8.77-3.37a20,20,0,0,0,1.37-8.85,5.94,5.94,0,0,1,2.67-5.75l6.81-1.26,3.23,0a24.1,24.1,0,0,0,13.66-.81c1.32-.45,2.6-1.37,2.68-2.68.07-1.14-1.56-1.3-2.49-1.76-1.17-.58-2.26-1.45-3.66-1.47Z" transform="translate(-87.39 -141.86)"/><path class="cls-13" d="M177.53,422.94l-21.22.12c-.45-1.07-.68-2.42-2.21-2.65,0-.67-.09-1.35-.13-2v-4.48C161.24,419,169.39,421,177.53,422.94Z" transform="translate(-87.39 -141.86)"/><path class="cls-14" d="M440,188.5c-2.55-1.37-4.22-.48-5.77,1.82-4.06,6.07-8,12.16-10.37,19.15-1.48,4.35-.82,8,2.3,11.46,3.59,4,7.61,7.59,10.27,12.39,5.14,9.27,4.93,19.12,3.55,29.14a32.74,32.74,0,0,1-.85,5c-1.54,5.16-.47,7.34,4.54,10.63a28.43,28.43,0,0,0,22.85,4,13.55,13.55,0,0,0,5.58-2.82c4.43-3.37,8.74-7,13.87-9.32,2.7-1.24,4.71-.69,6.29,1.84a10.59,10.59,0,0,1,1.22,4.46c.75,5.52,1.22,11.23,6.73,14.58-.77.25-2.26-.38-2.2.75a2.41,2.41,0,0,0,2.67,2c3.93,0,7.86.1,11.79,0,2.19-.07,2.8.88,2.51,2.83a2.58,2.58,0,0,0-3.36-1.72,31.09,31.09,0,0,1-11.38.21c-5.35-.91-7.75-4.87-9.59-9.38-.48-3.15-.94-6.31-1.45-9.45-.24-1.46-.67-2.77-2.51-1.35h0c-1.72.3-2.9,1.57-4.28,2.45-5.27,3.39-9.64,8.27-16.12,9.61-7.83.74-15.44.25-22.57-3.6-8.2-4.44-10-8.31-8.53-17.36,1-6,1.88-12,1.35-18.08-.77-8.79-5.24-15.54-11.34-21.51-7-6.82-8.17-11.46-3.94-21.84a77.83,77.83,0,0,1,9-15.72c1.3-1.81,1-2.5-.72-3.57a209,209,0,0,0-27-14.27c-.8-.36-1.55-.84-2.32-1.27,4.84-.64,8.06,3.08,12.11,4.56,6.27,2.28,11.41,6.8,17.72,9.1a4.09,4.09,0,0,1,2.4,4.59c-.12.56-1.07,1-.11,1.61s1.46,0,1.9-.74a9.41,9.41,0,0,1,.6-.81c.66-.91.68-2.4,2.46-2.23S439.56,187.05,440,188.5Z" transform="translate(-87.39 -141.86)"/><path class="cls-14" d="M246.7,422.54l-6.92,0c-1.51-1.17-3-2.34-4.49-3.52-.61-.48-1.17-1-1.74-1.56l6.09-.44,1.39.78,1.35,1.21Z" transform="translate(-87.39 -141.86)"/><path class="cls-15" d="M500.16,290.8c-5.51-3.35-6-9.06-6.73-14.58a10.59,10.59,0,0,0-1.22-4.46c-1.58-2.53-3.59-3.08-6.29-1.84-5.13,2.35-9.44,5.95-13.87,9.32a13.55,13.55,0,0,1-5.58,2.82c6.61-7.54,13.55-14.63,23.56-17.61,3.11-.92,3.81-3.32,4.06-6.21.36-4.31-1.57-8.33-1.31-12.59,2,.11,2.38,1.95,3.11,3.19,7.53,12.74,14.33,25.84,19.05,39.93-4.6,3-9.77,2-14.78,2Z" transform="translate(-87.39 -141.86)"/><path class="cls-14" d="M208.61,410.26c-.17.52-.32,1-.48,1.55h0q-2.48,2.26-5,4.5c-1.68,1.49-3.36,3-5.08,4.4-.85.71-1.7,1.42-2.55,2.11l-6.93.05c.92-.77,1.78-1.61,2.66-2.43a74.28,74.28,0,0,0,13.52-11.95l1.22-.28A3.85,3.85,0,0,0,208.61,410.26Z" transform="translate(-87.39 -141.86)"/><path class="cls-13" d="M152,418.62a1.53,1.53,0,0,1,0,.43h0l0,0v0l-.35.32a2.85,2.85,0,0,0-.44.56,3.54,3.54,0,0,0-.5,1.44,7.65,7.65,0,0,0,0,1.73v0h0v0l-14.58.09a212.25,212.25,0,0,1-7.84-31c-.91-5.37-2.33-10.74-1.86-16.29,1.59,2.25,1.68,5.05,2.71,7.51,4.92,11.82,12.06,21.9,22.76,29.23a4.67,4.67,0,0,1,.81,1,3.21,3.21,0,0,0-.9.64l-.18.23c0,.08-.09.16-.13.24a1.09,1.09,0,0,0-.09.23,1.23,1.23,0,0,0,0,.25,2.22,2.22,0,0,0,0,.81s0,.06,0,.1,0,.19.08.3c.12.4.28.81.4,1.22,0,.11.07.23.09.34l0,.08,0,.17a.41.41,0,0,1,0,.11A.93.93,0,0,1,152,418.62Z" transform="translate(-87.39 -141.86)"/><path class="cls-15" d="M520.26,404.12c-.18,4.53-2,8.64-3.27,12.89-.39,1.32-.8,2.65-1.22,4l-3.87,0c2.21-4.3,4.37-8.62,6.28-13.07C518.75,406.59,519.56,405.39,520.26,404.12Z" transform="translate(-87.39 -141.86)"/><path class="cls-16" d="M474.68,421.21h-1.41a13,13,0,0,0-1.42-3.83c-.34-.59-.06-1.53-.06-2.32A20.52,20.52,0,0,1,474.68,421.21Z" transform="translate(-87.39 -141.86)"/><path class="cls-14" d="M400.18,169.51c-7.68-2.41-15.06-5.71-22.9-7.63-4.88-1.2-9.69-2.74-14.72-3.33-4.83-1.64-10-1.61-14.91-2.71,4.29-1.05,8.69-.24,12.76.55,2.5.49,5.3,1.23,7.87,2,8.92,2.48,18,4.5,26.54,8.15C396.76,167.32,399.17,167.09,400.18,169.51Z" transform="translate(-87.39 -141.86)"/><path class="cls-14" d="M286.92,155.9a327.22,327.22,0,0,0-37.07,10.89c1.57-3.45,5.27-2.88,8-4a107.09,107.09,0,0,1,16.24-5.06C278.18,156.73,282.4,154.7,286.92,155.9Z" transform="translate(-87.39 -141.86)"/><path class="cls-14" d="M465,209.41a298.16,298.16,0,0,0-25.07-20.93c2.06-.78,3.09,1,4.32,1.92,5,3.67,9.8,7.47,14.62,11.3,1.89,1.49,3,3.78,5.1,5.09A2.34,2.34,0,0,1,465,209.41Z" transform="translate(-87.39 -141.86)"/><path class="cls-14" d="M224.89,178.87q-11.44,7.51-22.9,15c0-.44-.12-1.22,0-1.29,4.39-1.88,6.42-6.9,11.12-8.34a13.13,13.13,0,0,0,6.1-3.27A5.82,5.82,0,0,1,224.89,178.87Z" transform="translate(-87.39 -141.86)"/><path class="cls-17" d="M497.43,332.7c.39-1.57,1.72-2,2.94-2.84,3.83-2.53,8.65-3.73,10.83-8.54.77-1.7,3.05-.56,4.65-.7A56.4,56.4,0,0,1,497.43,332.7Z" transform="translate(-87.39 -141.86)"/><path class="cls-17" d="M347.65,155.84c4.93,1.1,10.08,1.07,14.91,2.71-3.52.07-7.05.22-10.58.16-1.19,0-1.59.44-1.74,1.45l-1-.44-.17.14.14-.16c-.54-1.44-1.83-2.23-2.85-3.26Z" transform="translate(-87.39 -141.86)"/><path class="cls-14" d="M500.16,290.81c5-.07,10.18,1,14.78-2,.18,2.77-2.55,3-3.85,3.18-3.27.52-6.69.19-10,.12C500.43,292.06,500.23,291.39,500.16,290.81Z" transform="translate(-87.39 -141.86)"/><path class="cls-14" d="M237.75,172.17A74.5,74.5,0,0,1,227,177.62C229.71,174.11,233.49,172.67,237.75,172.17Z" transform="translate(-87.39 -141.86)"/><path class="cls-14" d="M243.75,169.44a23.09,23.09,0,0,1-6,2.75C239.05,169.77,241,168.71,243.75,169.44Z" transform="translate(-87.39 -141.86)"/><path class="cls-14" d="M346.37,156.44c1,1,2.31,1.82,2.85,3.26C347.11,159.63,346.29,158.42,346.37,156.44Z" transform="translate(-87.39 -141.86)"/><path class="cls-14" d="M247.93,167.53a7.56,7.56,0,0,1-3.52,1.72C245,167.44,246.38,167.34,247.93,167.53Z" transform="translate(-87.39 -141.86)"/><path class="cls-14" d="M349.25,159.72l1,.44,1,1.1.57,1.24-.19.19C350.3,162.14,349.09,161.48,349.25,159.72Z" transform="translate(-87.39 -141.86)"/><path class="cls-14" d="M227,177.6a3,3,0,0,1-2.09,1.28C224.93,177.42,225.92,177.46,227,177.6Z" transform="translate(-87.39 -141.86)"/><path class="cls-14" d="M249.88,166.77a2.38,2.38,0,0,1-2,.82C248.21,166.5,249.09,166.74,249.88,166.77Z" transform="translate(-87.39 -141.86)"/><path class="cls-14" d="M353,164a1.34,1.34,0,0,1-1.34-1.35l.19-.19a2,2,0,0,1,1.32,1.38Z" transform="translate(-87.39 -141.86)"/><path class="cls-18" d="M279.4,235.5c1.06,2.08,2,4.26,3.22,6.23,6.78,10.74,19.39,14.32,33,9.58a39.59,39.59,0,0,0,20-14.76,30.12,30.12,0,0,1,8.46-8c3.39-2.21,6.5-4.86,10-6.81a25.32,25.32,0,0,0,13-17.43c1.94-.67,3.32,0,4.65,1.52,8.55,9.65,14.08,20.61,15.11,33.64,1.61,20.4-7.08,36.22-22.2,48.89-11.57,9.7-25.4,14.22-40.24,16-3.76.45-7.47,1.36-11.31,1.28-11.18-.24-21.48-3.83-31.44-8.5-6.13-2.87-11.46-6.89-15.12-12.78-4.64-7.46-4.94-15.49-2.39-23.57A64.45,64.45,0,0,1,279.4,235.5Z" transform="translate(-87.39 -141.86)"/><path class="cls-1" d="M244.83,326.38c7.61-5,15.81-3.41,21.48,4.17,9.58,12.8,9.63,36.21.09,48.91-7.61,10.13-19.33,9.66-26.84-1.08-8.12-11.62-8.54-33.37-.81-45.27.41-.63.5-1.77,1.69-1.68-.36,5.91,3.47,9.71,8.21,8.18a6.79,6.79,0,0,0,4.58-8.18C252.32,327.59,249.31,325.78,244.83,326.38Z" transform="translate(-87.39 -141.86)"/><path class="cls-1" d="M393.46,324.7c9.71,6.21,12.93,15.79,13.71,26.6.63,8.87-.54,17.39-5,25.29-6.17,10.89-18.1,14.56-27.66,3.32-8.21-12.36-9.08-25.68-5.07-39.58.51-1.78.84-3.81,2.65-5,.34,4.14,2.6,6.86,6,7.28,2.59.31,5.72-1.82,6.72-4.57a6.9,6.9,0,0,0-2.74-8.22c-1.86-1.34-4-.65-5.94-1.18l2.66-2.62h0A15.88,15.88,0,0,1,393.46,324.7Z" transform="translate(-87.39 -141.86)"/><path class="cls-19" d="M417.68,392c7.43.47,14.81,1.31,21.78,4.12,3.44,1.39,5.72,4.3,7.72,7.28a3.78,3.78,0,0,1-.05,4.19c-3.07,3.42-6.27,6.22-11.22,7.58-5.8,1.6-11.82-.16-17.36,2.24a2.59,2.59,0,0,1-2,0c-3.27-1.81-6.81-1-10.22-1.08-6.79-.08-12.46-2.4-17-7.53-2.28-2.6-1.55-6.84.91-9.1,5.12-4.71,11.3-5.71,17.83-6.62A80,80,0,0,1,417.68,392Z" transform="translate(-87.39 -141.86)"/><path class="cls-19" d="M206,408.22l-1.22.29c-.26-5.66,4-10.35,9.42-12.65,7.72-3.25,15.65-3.73,23.76-3.75,4.59,0,8.89,1.3,13.31,2.31a41.27,41.27,0,0,1,8.65,3c2.84,1.36,4.29,3.83,5.23,6.56s-1.59,6.32-5,8.2a48.14,48.14,0,0,1-11.07,4c-2.74.26-5.67-.5-8,1.59l-1.39-.78c-1.16-.85-2.31-1.72-3.48-2.56-6.67-4.71-13.21-9.62-21.07-12.32-3.17-1.08-5.45-.2-7.14,2.55C207.25,405.86,206.64,407.06,206,408.22Z" transform="translate(-87.39 -141.86)"/><path class="cls-18" d="M204.76,344.89a33.55,33.55,0,0,1,12.31-24.15c10-8.45,21.94-12.29,34.37-14.84,4-.82,8.28-.2,12.44-.2.8,0,1.7.2,1.83,1.13.18,1.21-.82,1.36-1.73,1.57-17.93,4.26-30.31,16-40.79,30.3a72.28,72.28,0,0,0-6.77,10.39c-1.57,3.17-3.12,4.09-6.42,2.55C207.44,350.44,204.73,347.46,204.76,344.89Z" transform="translate(-87.39 -141.86)"/><path class="cls-20" d="M323.32,379.92a26.29,26.29,0,0,0,8.16,7.41c3.32,2,4.82,1.36,6-2.26a27.26,27.26,0,0,0,1.18-8c.08-4,3.06-1.78,4.72-2.2s2.66.25,2.52,2.35c-.25,3.71-.46,7.41-1.75,10.93-2.55,6.93-8.88,9.91-15,5.93-5-3.23-8.29-3.32-13.18.18-5.63,4-11.62,1.58-14.76-4.67a37,37,0,0,1-2.21-7.05c-.07-1.78,0-3.57-.21-5.35s.32-2.8,2.13-2.3,4.63-1.59,4.87,2a31.8,31.8,0,0,0,1.34,7.89c1.47,4.47,3.05,4.92,7,2.1l0,0c2.29-.77,3.51-2.9,5.34-4.25C320.76,381.72,321.24,379.69,323.32,379.92Z" transform="translate(-87.39 -141.86)"/><path class="cls-21" d="M406.27,252.45c.94,5.34,5.53,6.4,10.16,8.08-5.93,2.5-8.39,7.35-10.85,12.7-3-4.35-5.8-8.55-10.91-10.07-.42-2.83,3.53-2.22,3.65-4.63h0c3.06.34,3.29-2.54,4.69-4.1l.59-.78.59-.73C404.94,253.16,405.59,252.72,406.27,252.45Z" transform="translate(-87.39 -141.86)"/><path class="cls-21" d="M244.83,326.38c4.48-.6,7.49,1.21,8.4,5.05a6.79,6.79,0,0,1-4.58,8.18c-4.74,1.53-8.57-2.27-8.21-8.18C241.06,329,242.75,327.53,244.83,326.38Z" transform="translate(-87.39 -141.86)"/><path class="cls-17" d="M378.8,326.05l-2.66,2.62c-1.61,2.07-3.65,3.89-4.08,6.69-1.81,1.16-2.14,3.19-2.65,5-4,13.9-3.14,27.22,5.07,39.58-1.17.09-2.47,0-2.92-1.16-1.44-3.84-4.81-6.56-5.26-11.14-.39-3.92-.94-7.66.1-11.51.44-1.62-1.11-2.72-1.33-4.34-.46-3.39,1.55-5.91,2.22-8.87.76-3.42,1.12-6.89,3.2-9.94a81.08,81.08,0,0,1,5.82-6.84C377.09,325.19,378,326,378.8,326.05Z" transform="translate(-87.39 -141.86)"/><path class="cls-17" d="M314.12,386.93c-4,2.82-5.54,2.37-7-2.1a31.8,31.8,0,0,1-1.34-7.89c-.24-3.6-3.18-1.55-4.87-2s-2.29.63-2.13,2.3.14,3.57.21,5.35c-1.31-2.24-.31-4.82-1.07-7.18-.3-1,.84-1.91,1.85-2.07,2.79-.45,5.57-.4,8,1.36a2.18,2.18,0,0,1,.5,3c-3,3.86,1.05,6.27,1.72,9.35.16.78.8.63,1.27.19C312.15,386.44,313.13,386.67,314.12,386.93Z" transform="translate(-87.39 -141.86)"/><path class="cls-17" d="M244.22,300.21c6.49-3.59,7.34-10.26,8.94-16.5.49-1.93.86-3.91,1.29-5.86,1.31,7.44-1.39,14.1-4.25,20.67C249,301.23,246.35,300.09,244.22,300.21Z" transform="translate(-87.39 -141.86)"/><path class="cls-17" d="M166.82,350.26c2.3,1.95,4.58,3.91,6.9,5.83,4.51,3.72,8.41,3,11.33-2,.72-1.24,1.35-2.53,2-3.8,0,4.66-2.61,8.93-7,10a6.5,6.5,0,0,1-6.14-2.15,6.41,6.41,0,0,0-4.39-2.61C166.64,355.11,166.71,352.55,166.82,350.26Z" transform="translate(-87.39 -141.86)"/><path class="cls-17" d="M255.81,257.29c-.34-8.76-6.89-11.9-13.53-15C250.52,242.92,257.45,246.2,255.81,257.29Z" transform="translate(-87.39 -141.86)"/><path class="cls-17" d="M466.22,286.71c6.48-1.34,10.85-6.22,16.12-9.61,1.38-.88,2.56-2.15,4.28-2.45-.95,2.3-3.08,3.19-4.94,4.56-2.28,1.67-4.89,2.92-6.89,5.09C472.55,286.72,469.43,287.17,466.22,286.71Z" transform="translate(-87.39 -141.86)"/><path class="cls-17" d="M393.46,324.7a15.88,15.88,0,0,0-14.67,1.36,2.07,2.07,0,0,1,.62-1.82c2.88-2.85,10.86-3.16,13.84-.5C393.45,323.91,393.39,324.37,393.46,324.7Z" transform="translate(-87.39 -141.86)"/><path class="cls-17" d="M486.64,274.65c1.84-1.42,2.27-.11,2.51,1.35.51,3.14,1,6.3,1.45,9.45-1.9-2-5.79-3.23-2.77-7.33A2.2,2.2,0,0,0,486.64,274.65Z" transform="translate(-87.39 -141.86)"/><path class="cls-17" d="M254.51,277.35q.66-6.5,1.3-13a15.62,15.62,0,0,0,1,4.06c1.63,3.32-.64,6.42-1.24,9.62Z" transform="translate(-87.39 -141.86)"/><path class="cls-17" d="M323.32,379.92c-2.08-.23-2.56,1.8-3.82,2.72-1.83,1.35-3.05,3.48-5.34,4.25,1.09-3.92,4.75-5.56,7.36-8.11C322.16,378.15,323.24,378.68,323.32,379.92Z" transform="translate(-87.39 -141.86)"/><path class="cls-17" d="M403,254.42c-1.4,1.56-1.63,4.44-4.69,4.1,1.77-2.89,4.45-5.22,5.34-8.67.16-.6.76-.76,1.34-.84l-.81,3.9-.59.73Z" transform="translate(-87.39 -141.86)"/><path class="cls-17" d="M353.16,163.88a2,2,0,0,0-1.32-1.38l-.57-1.24c3.23.24,6.65,4.1,7.17,8.09Z" transform="translate(-87.39 -141.86)"/><path class="cls-17" d="M398.32,258.53c-.12,2.41-4.07,1.8-3.65,4.63-.79-.14-1.69,1.16-2.32-.08-.37-.74.09-1.42.65-2.06C394.43,259.41,395.86,257.9,398.32,258.53Z" transform="translate(-87.39 -141.86)"/><path class="cls-18" d="M152,419v0h0Z" transform="translate(-87.39 -141.86)"/><path class="cls-18" d="M154.78,423.08h0a2.46,2.46,0,0,0-1.52,0l-2.54,0c1.17-1.11,1.25-2.57,1.31-4l1.29-.82.68.13c0,.69.08,1.37.13,2C154.33,421.3,154.55,422.19,154.78,423.08Z" transform="translate(-87.39 -141.86)"/><path class="cls-17" d="M166.94,362.32c1.15-2.56,2.67-3,4.57-2.43a1,1,0,0,1,.57,1.38C170.86,363.36,169,362,166.94,362.32Z" transform="translate(-87.39 -141.86)"/><path class="cls-17" d="M191.25,420.45c-.88.82-1.74,1.66-2.66,2.43l-2.53,0c.59-.85,1.15-1.77,2.33-1.95A15.39,15.39,0,0,1,191.25,420.45Z" transform="translate(-87.39 -141.86)"/><path class="cls-17" d="M241,417.84c2.37-2.09,5.3-1.33,8-1.59-.14,1.91-1.61,1.32-2.69,1.42-1.45.14-3.13-.41-4,1.38Z" transform="translate(-87.39 -141.86)"/><path class="cls-17" d="M208.75,316.4c-.76,0-1.29-.26-1.36-1.07s.33-1.48,1.32-1.46a1.11,1.11,0,0,1,1.2,1.24A1.12,1.12,0,0,1,208.75,316.4Z" transform="translate(-87.39 -141.86)"/><path class="cls-17" d="M252.09,299.92l3.52-2.2C256.09,300.59,254.6,300.36,252.09,299.92Z" transform="translate(-87.39 -141.86)"/><path class="cls-18" d="M404.15,252.91,405,249c1.63.69,1.44,2.08,1.31,3.44C405.59,252.72,404.94,253.16,404.15,252.91Z" transform="translate(-87.39 -141.86)"/><path class="cls-16" d="M153.29,418.24l-1.3.83c.39-1.78-2.21-3.92.65-5.4C152.81,415.2,152.33,416.83,153.29,418.24Z" transform="translate(-87.39 -141.86)"/><path class="cls-17" d="M240.88,301.56a4.44,4.44,0,0,1,2.86-1.19C243.36,302.15,242,301.54,240.88,301.56Z" transform="translate(-87.39 -141.86)"/><path class="cls-17" d="M255.52,242.7c.1.55-.19.77-.53.75a1,1,0,0,1-.78-.4c-.18-.39.18-.63.52-.63A2.56,2.56,0,0,1,255.52,242.7Z" transform="translate(-87.39 -141.86)"/><path class="cls-15" d="M350.67,167.88c11.3,9.54,15.87,27.49,10.33,41a14.44,14.44,0,0,1-5.48,6.57c-5.77,3.83-11.36,7.93-17.21,11.63-3.68,2.32-5.42,6.16-8.12,9.23-7.62,8.68-17.18,13.08-28.67,12.56-6.31-.28-13.59-4.6-15.86-11.39a34.11,34.11,0,0,0,16.58-.49c3.95-1.21,6.64-4.12,9.64-6.54C332.11,214.15,345.65,193.64,350.67,167.88Z" transform="translate(-87.39 -141.86)"/><path class="cls-15" d="M250.85,265c.92,3-.1,6-.51,8.92-.88,6.21-1.24,12.64-4.4,18.33-.73.15-.84.69-.84,1.31h0c-2,0-4.3-.54-4,2.75v0c-1.06.07-2.42-.54-2.74,1.21a81.81,81.81,0,0,1-19.56,2.74,14.12,14.12,0,0,1,2.57-1.48c10.81-3.49,17.77-11.15,22.87-20.9a60.85,60.85,0,0,0,3.73-8.57C248.5,267.67,248.87,265.75,250.85,265Z" transform="translate(-87.39 -141.86)"/><path class="cls-15" d="M172.22,387.94a5.94,5.94,0,0,0-2.67,5.75,20,20,0,0,1-1.37,8.85c-1.78,4.3-4.59,5.44-8.77,3.37-1.18-.59-2.26-1.39-3.39-2.09,2.66-6.56,5.91-12.63,12.95-15.54,1-.42,2.08-.79,3.13-1.18Z" transform="translate(-87.39 -141.86)"/><path class="cls-15" d="M227.54,215.24a.66.66,0,0,1-.41.14c-.79.09-.91.65-.89,1.3h0c-1.7,0-2.56-1.38-3.51-2.64-1.5,3.6-5.48,5.57-5,9.83a.91.91,0,0,1-.49.75c-4.09,1.49-6.71,5.21-10.58,7-.94.45-.65,1.3-.59,2.06l-6.15,5.12c-.27-2.4,1-3.9,2.73-5.39,8.77-7.45,16.72-15.64,21.5-26.33,1.45-3.23,2.24-6.77,3.33-10.16C228,203.05,226.74,209.15,227.54,215.24Z" transform="translate(-87.39 -141.86)"/><path class="cls-15" d="M184.46,376.59l8,3.4c-2.56,5.32,3.46.88,3.49,3.69-.47,1.19-1.72,1.69-3.45,1.65-2.89-.08-5.8.09-8.69-.06-1.26-.07-1.56.39-1.54,1.44l-3.23,0-6.15,0c2.56-1.84,5.69-2.32,8.5-3.56C184.55,381.69,185.32,380.19,184.46,376.59Z" transform="translate(-87.39 -141.86)"/><path class="cls-15" d="M175.45,351.65l-5.81-4.83c7,.23,10.63-4.58,14.13-9.54.63-.9.88-2.06,1.9-2.67-.12,4-3.78,7-3.15,11.23.07.49-1.05,1.65-2.21,1.68-.09-.48-.07-1.06-.81-1a.32.32,0,0,0-.2.21c-.05.74.53.72,1,.81,0,4.68,0,4.68-4.53,4.1A1.84,1.84,0,0,0,175.45,351.65Z" transform="translate(-87.39 -141.86)"/><path class="cls-22" d="M175.45,351.65a1.84,1.84,0,0,1,.33,0c4.51.58,4.51.58,4.53-4.1h0c1.16,0,2.28-1.19,2.21-1.68-.63-4.26,3-7.25,3.15-11.23a1.34,1.34,0,0,1,1.23-1.4,40.64,40.64,0,0,1-6,19.35C178.86,356,177.05,353.36,175.45,351.65Z" transform="translate(-87.39 -141.86)"/><path class="cls-22" d="M227.54,215.24c-.8-6.09.5-12.19,0-18.28.07-.91-.13-1.9.71-2.6,1.38,4.56.36,9.24.63,13.85C229,210.61,229.24,213.14,227.54,215.24Z" transform="translate(-87.39 -141.86)"/><path class="cls-22" d="M172.88,386.65l6.15,0-6.81,1.26-.12-.84Z" transform="translate(-87.39 -141.86)"/><path class="cls-16" d="M466.5,411.87c-1.74.42-3,1-3.94-.45a1.07,1.07,0,0,1,.62-1.63C464.94,409.28,465.28,410.83,466.5,411.87Z" transform="translate(-87.39 -141.86)"/><path class="cls-23" d="M206,408.22c.65-1.16,1.26-2.36,2-3.49,1.69-2.75,4-3.63,7.14-2.55,7.86,2.7,14.4,7.61,21.07,12.32,1.17.84,2.32,1.71,3.48,2.56l-6.09.45-1.21-.1c-4.39-4.19-9.8-6.82-15-9.77-3-1.71-5.59-1.91-7.43,1.65-.23.43-.87.65-1.32,1A3.85,3.85,0,0,1,206,408.22Z" transform="translate(-87.39 -141.86)"/><path class="cls-24" d="M208.6,410.26c.45-.32,1.09-.54,1.32-1,1.84-3.56,4.43-3.36,7.43-1.65,5.19,2.95,10.6,5.58,15,9.77-7,.45-13.51-1.51-19.74-4.54a10.2,10.2,0,0,0-4.47-1.06C208.29,411.3,208.45,410.78,208.6,410.26Z" transform="translate(-87.39 -141.86)"/><path class="cls-22" d="M206.09,233.72c-.06-.76-.35-1.61.59-2.06,3.87-1.82,6.49-5.54,10.58-7a.91.91,0,0,0,.49-.75c-.48-4.26,3.5-6.23,5-9.83.95,1.26,1.81,2.61,3.51,2.64-2.48,5.94-8.15,8.71-12.7,12.56A24.66,24.66,0,0,1,206.09,233.72Z" transform="translate(-87.39 -141.86)"/><path class="cls-22" d="M182.26,386.71c0-1,.28-1.51,1.54-1.44,2.89.15,5.8,0,8.69.06,1.73,0,3-.46,3.45-1.65,0-2.81-6.05,1.63-3.49-3.69,1.4,0,2.49.89,3.66,1.47.93.46,2.56.62,2.49,1.76-.08,1.31-1.36,2.23-2.68,2.68A24.1,24.1,0,0,1,182.26,386.71Z" transform="translate(-87.39 -141.86)"/><path class="cls-22" d="M241.09,296.31c-.28-3.29,2.07-2.73,4-2.75A4.29,4.29,0,0,1,241.09,296.31Z" transform="translate(-87.39 -141.86)"/><path class="cls-22" d="M238.34,297.5c.32-1.75,1.68-1.14,2.74-1.21A3.36,3.36,0,0,1,238.34,297.5Z" transform="translate(-87.39 -141.86)"/><path class="cls-25" d="M353,166.69c.49.09,1.07.07,1,.82,0,.07-.13.2-.21.21-.74,0-.72-.54-.81-1Z" transform="translate(-87.39 -141.86)"/><path class="cls-22" d="M245.1,293.57c0-.62.11-1.16.84-1.31Z" transform="translate(-87.39 -141.86)"/><path class="cls-22" d="M226.24,216.68c0-.65.1-1.21.89-1.3C226.84,215.82,226.54,216.25,226.24,216.68Z" transform="translate(-87.39 -141.86)"/><path class="cls-16" d="M156.31,423.06l-1.53,0c-.23-.89-.45-1.78-.68-2.67C155.63,420.64,155.86,422,156.31,423.06Z" transform="translate(-87.39 -141.86)"/><path class="cls-21" d="M372.06,335.36c.43-2.8,2.47-4.62,4.08-6.69,1.94.53,4.08-.16,5.94,1.18a6.9,6.9,0,0,1,2.74,8.22c-1,2.75-4.13,4.88-6.72,4.57C374.66,342.22,372.4,339.5,372.06,335.36Z" transform="translate(-87.39 -141.86)"/><path class="cls-18" d="M403,254.42l.59-.78Z" transform="translate(-87.39 -141.86)"/><path class="cls-22" d="M180.31,347.52c-.48-.09-1.06-.07-1-.81a.32.32,0,0,1,.2-.21c.74,0,.72.54.81,1Z" transform="translate(-87.39 -141.86)"/><path class="cls-26" d="M533.19,349.55a41.35,41.35,0,0,0,0,14.84v8.77c-1.51.8-1,2.32-1.14,3.53a198.18,198.18,0,0,1-7.82,40.54c-.38,1.25-.77,2.48-1.16,3.7l-7.3,0-3.87,0-32.9.2-4.32,0h-1.41l-22.2.13L246.7,422.54l-6.92,0-44.26.25-6.93.05-2.53,0-8.53,0-21.22.12-1.53,0h-1.55l-2.54,0h0l-14.58.09-9.88.05a214.42,214.42,0,0,1-9.54-46.1c-.16-1.56.24-3.34-1.11-4.65V340.78c1.76-3.62,1.24-7.61,1.73-11.41A211.79,211.79,0,0,1,173.49,210.3a7.06,7.06,0,0,0,.76-1.09l12.29-11.75c2.12-3.75,6.22-5.12,9.37-7.59C226,166.3,259.8,151.38,297.82,147c69.69-8,129.16,13.5,177.74,63.91,30,31.16,47.74,68.84,54.84,111.48.94,5.65,1.36,11.37,2.07,17.05.08.69-.35,1.65.72,2Z" transform="translate(-87.39 -141.86)"/></svg>